<?xml version="1.0" encoding="UTF-8"?>
<svg id="Layer_2" data-name="Layer 2" xmlns="http://www.w3.org/2000/svg" viewBox="0 0 549.5 256.21">
  <g id="Layer_1-2" data-name="Layer 1">
    <g id="thinLineBlack">
      <path d="M394.24,213.77V23.57h26.53v82.18h48.84V23.57h26.53v190.2h-26.53v-88.99h-48.84v88.99h-26.53Z"/>
      <path d="M59.91,213.77V23.57h38.27c12.68,0,23.17,1.68,31.46,5.05,8.3,3.37,14.44,8.77,18.43,16.2,3.99,7.44,5.99,17.18,5.99,29.23,0,7.36-.79,14.05-2.35,20.08-1.57,6.03-4.07,11.12-7.51,15.26-3.45,4.15-7.98,7.16-13.62,9.04l27,95.33h-25.59l-24.89-89.23h-20.66v89.23h-26.53ZM86.44,105.52h10.1c7.51,0,13.62-.94,18.31-2.82,4.7-1.88,8.14-5.08,10.33-9.63,2.19-4.54,3.29-10.88,3.29-19.02,0-11.11-2.04-19.14-6.1-24.07-4.07-4.93-12.13-7.4-24.19-7.4h-11.74v62.93h0Z"/>
      <path d="M228.61,213.77l-31-190.2h22.07l20.43,136.66,25.59-135.95h18.78l25.83,136.66,19.96-137.36h21.6l-30.53,190.2h-19.25l-26.53-140.89-26.77,140.89h-20.19,0Z"/>
      <rect y="23.57" width="208.38" height="18.86"/>
      <rect x="341.12" y="23.57" width="208.38" height="18.86"/>
      <rect y="213.77" width="549.49" height="18.86"/>
      <rect y="246.78" width="549.49" height="9.43"/>
      <rect width="549.49" height="9.43"/>
    </g>
  </g>
</svg>